<svg xmlns="http://www.w3.org/2000/svg" xmlns:xlink="http://www.w3.org/1999/xlink" version="1.1" x="0px" y="0px" viewBox="0 0 100 125" style="enable-background:new 0 0 100 100;" xml:space="preserve"><path d="M24.45605,37.5791c-0.55225,0-1,0.44775-1,1v2.16895h-2.16895c-0.55225,0-1,0.44775-1,1s0.44775,1,1,1h2.16895v2.16895  c0,0.55225,0.44775,1,1,1s1-0.44775,1-1v-2.16895H27.625c0.55225,0,1-0.44775,1-1s-0.44775-1-1-1h-2.16895V38.5791  C25.45605,38.02686,25.0083,37.5791,24.45605,37.5791z"/><path d="M68.20605,20.75H70.375v2.16895c0,0.55225,0.44775,1,1,1s1-0.44775,1-1V20.75h2.16895c0.55225,0,1-0.44775,1-1  s-0.44775-1-1-1H72.375v-2.16895c0-0.55225-0.44775-1-1-1s-1,0.44775-1,1V18.75h-2.16895c-0.55225,0-1,0.44775-1,1  S67.65381,20.75,68.20605,20.75z"/><path d="M79.20605,39.5791H81.375v2.16895c0,0.55225,0.44775,1,1,1s1-0.44775,1-1V39.5791h2.16895c0.55225,0,1-0.44775,1-1  s-0.44775-1-1-1H83.375v-2.16895c0-0.55225-0.44775-1-1-1s-1,0.44775-1,1v2.16895h-2.16895c-0.55225,0-1,0.44775-1,1  S78.65381,39.5791,79.20605,39.5791z"/><path d="M10.51514,20.62451l2.20996,1.2251c2.03857,1.12988,3.70557,2.81934,4.82031,4.88574l1.20898,2.23975  C18.92871,29.29834,19.2666,29.5,19.63428,29.5s0.70557-0.20166,0.87988-0.5249l1.20898-2.24023  c1.11475-2.06592,2.78174-3.75537,4.82031-4.88525l2.20996-1.2251c0.31787-0.17627,0.51514-0.51123,0.51514-0.87451  s-0.19727-0.69824-0.51514-0.87451l-2.20996-1.2251c-2.03857-1.12988-3.70557-2.81934-4.82031-4.88574l-1.20898-2.23975  c-0.34863-0.64648-1.41113-0.64648-1.75977,0l-1.20898,2.24023c-1.11475,2.06592-2.78174,3.75537-4.82031,4.88525l-2.20996,1.2251  C10.19727,19.05176,10,19.38672,10,19.75S10.19727,20.44824,10.51514,20.62451z M13.69482,19.39941  c2.37354-1.31543,4.31396-3.28125,5.61035-5.68457l0.3291-0.60938l0.3291,0.60889c1.29639,2.40381,3.23682,4.36963,5.61035,5.68506  L26.20605,19.75l-0.63232,0.35059c-2.37354,1.31543-4.31396,3.28125-5.61035,5.68457l-0.3291,0.60938l-0.3291-0.60889  c-1.29639-2.40381-3.23682-4.36963-5.61035-5.68506L13.0625,19.75L13.69482,19.39941z"/><path d="M27.38867,60.99707l-1.20898,2.24023c-1.11523,2.06641-2.78174,3.75586-4.81982,4.88525l-2.21045,1.2251  c-0.31787,0.17627-0.51514,0.51074-0.51514,0.87451s0.19727,0.69824,0.51514,0.87451l2.21045,1.2251  c2.03857,1.12988,3.70508,2.81934,4.81982,4.88574l1.20898,2.23975c0.17432,0.32324,0.51221,0.5249,0.87988,0.5249  s0.70557-0.20166,0.87988-0.5249l1.20898-2.24023c1.11475-2.06592,2.78174-3.75537,4.82031-4.88525l2.20996-1.2251  c0.31787-0.17627,0.51514-0.51123,0.51514-0.87451s-0.19727-0.69824-0.51514-0.87451l-2.21045-1.2251  c-2.03809-1.12939-3.70459-2.81885-4.81982-4.88574l-1.20898-2.23975C28.7998,60.35059,27.7373,60.35059,27.38867,60.99707z   M34.20801,69.87158l0.63232,0.35059l-0.63232,0.35059c-2.37354,1.31543-4.31396,3.28125-5.61035,5.68457l-0.3291,0.60938  l-0.3291-0.60889c-1.29639-2.40381-3.23633-4.36963-5.60986-5.68506l-0.63232-0.35059l0.63232-0.35059  c2.37305-1.31494,4.31299-3.28076,5.60986-5.68457l0.3291-0.60938l0.3291,0.60889  C29.89453,66.59082,31.83496,68.55664,34.20801,69.87158z"/><path d="M89.48486,66.63232l-3.28564-1.8208c-3.11084-1.72461-5.65479-4.30322-7.35742-7.45703l-1.79688-3.32959  c-0.34863-0.64648-1.41113-0.64648-1.75977,0l-1.79688,3.32959c-1.70215,3.15381-4.24609,5.73242-7.35742,7.45703l-3.28516,1.8208  c-0.31787,0.17627-0.51514,0.51123-0.51514,0.87451s0.19727,0.69824,0.51514,0.87451l3.28516,1.8208  c3.11133,1.72412,5.65527,4.30273,7.35742,7.45703l1.79688,3.32959c0.17432,0.32324,0.51221,0.5249,0.87988,0.5249  s0.70557-0.20166,0.87988-0.5249l1.79688-3.32959c1.70264-3.1543,4.24658-5.73291,7.35742-7.45703l3.28564-1.8208  C89.80273,68.20508,90,67.87061,90,67.50684S89.80273,66.80859,89.48486,66.63232z M85.22949,68.45312  c-3.4458,1.90967-6.26318,4.76465-8.14746,8.25586l-0.91699,1.69922l-0.91699-1.69922  c-1.88379-3.49121-4.70117-6.34619-8.14746-8.25586l-1.70703-0.94629l1.70703-0.94629  c3.44629-1.91016,6.26367-4.76514,8.14746-8.25586l0.91699-1.69922l0.91699,1.69922c1.88428,3.49072,4.70166,6.3457,8.14746,8.25586  l1.70752,0.94629L85.22949,68.45312z"/><path d="M46.81549,55.17981c-1.20386,0.84174-2.013,2.09808-2.27594,3.54431c-0.26514,1.45508,0.05273,2.92676,0.89453,4.14258  c0.84167,1.21674,2.08832,1.98407,3.43408,2.26215c-1.31317,2.63373-6.63477,13.53046-6.63477,17.11627  C42.2334,86.521,45.7124,90,49.98828,90s7.75439-3.479,7.75439-7.75488c0-3.58746-5.32629-14.49298-6.63586-17.12018  c0.70837-0.14532,1.40125-0.41821,2.03235-0.85492c1.2168-0.8418,2.03271-2.10693,2.29736-3.5625  c0.26514-1.45508-0.05273-2.92676-0.89453-4.14258c-0.38129-0.55121-0.85895-1.00702-1.39258-1.37976  c7.31378-1.4671,12.84131-7.93665,12.84131-15.6759c0-8.48376-6.646-15.42609-15.00244-15.94067v-2.362  c2.64484-0.46936,4.66113-2.7796,4.66113-5.55719C55.64941,12.53418,53.11523,10,50,10s-5.64941,2.53418-5.64941,5.64941  c0,2.76941,2.00439,5.07489,4.6377,5.55365v2.36676c-8.34552,0.52618-14.979,7.46356-14.979,15.93945  C34.00928,47.23633,39.51886,53.69922,46.81549,55.17981z M38.41992,47.3501l4.54846-2.62604  c1.41125,1.89783,3.56427,3.20959,6.03162,3.49139v5.23389C44.6051,53.13623,40.76215,50.79816,38.41992,47.3501z M50,32.7417  c3.73145,0,6.76758,3.03613,6.76758,6.76758S53.73145,46.27686,50,46.27686s-6.76758-3.03613-6.76758-6.76758  S46.26855,32.7417,50,32.7417z M49.98828,88c-3.17334,0-5.75488-2.58154-5.75488-5.75488  c0-2.47656,3.58838-10.39453,5.75488-14.86133c2.16602,4.4668,5.75439,12.38477,5.75439,14.86133  C55.74268,85.41846,53.16113,88,49.98828,88z M53.46875,60.34961c-0.16895,0.92969-0.69043,1.73779-1.46729,2.27588  c-1.604,1.10986-3.8125,0.70752-4.92285-0.89697c-0.5376-0.77686-0.74072-1.7168-0.57129-2.64648  c0.16895-0.92969,0.69043-1.73779,1.46729-2.27588c0.59863-0.41357,1.29346-0.62939,2.00586-0.62939  c0.21289,0,0.42725,0.01953,0.64111,0.05811c0.93018,0.16943,1.73828,0.69092,2.27588,1.46826  C53.43506,58.47998,53.63818,59.41992,53.46875,60.34961z M51,53.44934v-5.23389c2.46735-0.2818,4.62036-1.59357,6.03162-3.49139  l4.54846,2.62604C59.23785,50.79816,55.3949,53.13623,51,53.44934z M62.57013,45.61188l-4.53009-2.61542  c0.46582-1.06976,0.72754-2.24792,0.72754-3.48718s-0.26172-2.41742-0.72754-3.48718l4.53009-2.61542  c0.9007,1.84729,1.42059,3.91296,1.42059,6.1026S63.47083,43.76459,62.57013,45.61188z M61.58008,31.66846l-4.54846,2.62604  C55.62036,32.39667,53.46735,31.0849,51,30.8031v-5.23389C55.3949,25.88232,59.23785,28.2204,61.58008,31.66846z M46.35059,15.64941  C46.35059,13.63721,47.98779,12,50,12s3.64941,1.63721,3.64941,3.64941S52.01221,19.29883,50,19.29883  S46.35059,17.66162,46.35059,15.64941z M49,25.56921v5.23389c-2.46735,0.2818-4.62036,1.59357-6.03162,3.49139l-4.54846-2.62604  C40.76215,28.2204,44.6051,25.88232,49,25.56921z M37.42987,33.40668l4.53009,2.61542  c-0.46582,1.06976-0.72754,2.24792-0.72754,3.48718s0.26172,2.41742,0.72754,3.48718l-4.53009,2.61542  c-0.9007-1.84729-1.42059-3.91296-1.42059-6.1026S36.52917,35.25397,37.42987,33.40668z"/><text x="0" y="115" fill="#000000" font-size="5px" font-weight="bold" font-family="'Helvetica Neue', Helvetica, Arial-Unicode, Arial, Sans-serif">Created by Made by Made</text><text x="0" y="120" fill="#000000" font-size="5px" font-weight="bold" font-family="'Helvetica Neue', Helvetica, Arial-Unicode, Arial, Sans-serif">from the Noun Project</text></svg>